<svg width="59" height="53" viewBox="0 0 59 53" fill="none" xmlns="http://www.w3.org/2000/svg">
<path d="M21.9727 11.3438C15.0509 10.0885 9.58212 11.4062 7.39983 15.1719C5.77483 17.9792 6.23837 21.7083 8.53004 25.6875C8.72275 26.026 9.15504 26.1458 9.49879 25.9479C9.83733 25.7552 9.95712 25.3229 9.75921 24.9844C7.69671 21.3958 7.29567 18.1823 8.629 15.8802C10.4415 12.75 15.3217 11.5781 21.7175 12.7396C22.103 12.8073 22.4727 12.5521 22.5405 12.1667C22.6134 11.7865 22.3582 11.4167 21.9727 11.3438ZM32.2071 4.9375C31.6394 6.02604 30.4988 6.77083 29.1863 6.77083C27.3113 6.77083 25.7905 5.25521 25.7905 3.38542C25.7905 1.51563 27.3113 0 29.1863 0C31.0613 0 32.5821 1.51563 32.5821 3.38542C32.5821 3.43229 32.5821 3.48437 32.5769 3.53125C38.2019 6.43229 42.103 16.3125 42.103 27.7344C42.103 32.4323 41.4467 36.9375 40.2228 40.849C40.103 41.2188 39.7071 41.4271 39.3321 41.3125C38.9571 41.1927 38.7488 40.7969 38.8686 40.4271C40.0509 36.6562 40.6863 32.2917 40.6863 27.7344C40.6863 16.9844 37.103 7.72917 32.2071 4.9375ZM7.879 36.776C7.96754 36.7708 8.05087 36.7656 8.13421 36.7656C10.0092 36.7656 11.53 38.2812 11.53 40.1562C11.53 42.026 10.0092 43.5417 8.13421 43.5417C6.25921 43.5417 4.73837 42.026 4.73837 40.1562C4.73837 38.8802 5.4415 37.7708 6.48316 37.1927C5.97275 30.8646 12.6446 22.3802 22.728 16.5781C26.9155 14.1667 31.2748 12.4583 35.3686 11.5833C35.754 11.5 36.129 11.7448 36.2123 12.125C36.2957 12.5052 36.0509 12.8854 35.6707 12.9635C31.7227 13.8073 27.4988 15.4635 23.4363 17.8021C13.9415 23.2708 7.66546 31.1458 7.879 36.776ZM47.2384 41.8281C46.9519 41.3333 46.7905 40.7604 46.7905 40.1562C46.7905 38.2812 48.3113 36.7656 50.1863 36.7656C52.0613 36.7656 53.5821 38.2812 53.5821 40.1562C53.5821 42.026 52.0613 43.5417 50.1863 43.5417C49.4519 43.5417 48.7644 43.3021 48.2071 42.9062C42.7905 46.0833 32.4415 44.4583 22.7071 38.8542C18.5613 36.4688 14.9259 33.5938 12.129 30.526C11.8634 30.2396 11.8842 29.7917 12.1759 29.5312C12.4623 29.2656 12.9155 29.2865 13.1759 29.5781C15.8738 32.5312 19.3946 35.3177 23.4155 37.6302C32.603 42.9219 42.2853 44.4948 47.2384 41.8281ZM47.0144 29.6667C46.7592 29.9688 46.3113 30 46.0144 29.75C45.7123 29.5 45.6759 29.0521 45.9311 28.7552C50.1186 23.8229 51.53 19.0365 49.7228 15.9115C48.4103 13.6458 45.4936 12.3906 41.4467 12.3385C41.0561 12.3333 40.7436 12.0104 40.7488 11.6198C40.754 11.2292 41.0717 10.9167 41.4675 10.9219C45.9623 10.9844 49.3478 12.4427 50.9467 15.2083C53.1238 18.9635 51.5457 24.3333 47.0144 29.6667ZM18.5821 42.1354C18.4519 41.7708 18.6446 41.3646 19.0144 41.2344C19.379 41.099 19.7852 41.2917 19.9207 41.6562C22.1082 47.7552 25.5665 51.3802 29.1863 51.3802C31.7905 51.3802 34.3217 49.5156 36.379 46.099C36.5821 45.7656 37.0196 45.6562 37.353 45.8594C37.6915 46.0573 37.8009 46.4948 37.5978 46.8281C35.3061 50.6302 32.3634 52.7917 29.1863 52.7917C24.8269 52.7917 20.9519 48.7292 18.5821 42.1354ZM52.1655 40.1562C52.1655 39.0677 51.28 38.1823 50.1863 38.1823C49.0977 38.1823 48.2123 39.0677 48.2123 40.1562C48.2123 41.2396 49.0977 42.125 50.1863 42.125C51.28 42.125 52.1655 41.2396 52.1655 40.1562ZM8.13421 42.125C9.22796 42.125 10.1134 41.2396 10.1134 40.1562C10.1134 39.0677 9.22796 38.1823 8.13421 38.1823C7.04567 38.1823 6.16025 39.0677 6.16025 40.1562C6.16025 41.2396 7.04567 42.125 8.13421 42.125ZM29.1863 5.35937C30.28 5.35937 31.1655 4.47396 31.1655 3.38542C31.1655 2.29687 30.28 1.41667 29.1863 1.41667C28.0925 1.41667 27.2071 2.29687 27.2071 3.38542C27.2071 4.47396 28.0925 5.35937 29.1863 5.35937ZM29.7071 30.1302C28.379 30.4167 27.0717 29.5729 26.7852 28.25C26.4988 26.9323 27.3425 25.625 28.6655 25.3385C29.9936 25.0521 31.3009 25.8958 31.5873 27.2188C31.8738 28.5417 31.03 29.8438 29.7071 30.1302Z" fill="currentColor"/>
<path d="M20.4051 1.78646C8.94672 5.8125 0.535259 16.5521 0.0248417 29.4896C-0.105366 32.7396 0.280051 35.8906 1.09255 38.8646L1.19151 38.8281C0.384218 35.901 0.0196337 32.7917 0.160259 29.5833C0.191508 28.8854 0.2488 28.1927 0.326926 27.5104C2.67588 27.8906 5.0613 28.1354 7.48839 28.2396C7.70713 30.9531 8.21234 33.6146 8.95713 36.1771L9.02484 36.151C8.28526 33.6042 7.79047 30.9479 7.58734 28.2448C9.57172 28.3281 11.5821 28.3177 13.6082 28.2031C14.9676 28.1302 16.3061 28.0104 17.6342 27.8542C18.0248 29.5 18.4728 31.1406 18.978 32.75L19.0144 32.7344C18.5144 31.1302 18.0665 29.4948 17.6811 27.8438C21.8582 27.3385 25.9051 26.4219 29.7696 25.1354L31.8061 30.9531L29.8634 25.099C33.6394 23.8333 37.2436 22.2188 40.6446 20.2917C41.2801 21.7292 41.879 23.2135 42.4363 24.7292L42.4728 24.7188C41.9207 23.1979 41.3217 21.7083 40.6863 20.2656C43.4259 18.7083 46.0301 16.9531 48.4832 15.0156C49.7488 17.0469 50.8478 19.2448 51.7384 21.5521L51.8165 21.526C50.9155 19.2083 49.8217 17 48.5613 14.9531C50.2228 13.6354 51.8165 12.2344 53.3321 10.7552C55.5144 13.25 57.2905 16.1094 58.5457 19.224L58.6446 19.1875C54.2853 8.39583 43.9623 0.593751 31.6394 0.104167C28.5353 -0.015625 25.5248 0.328125 22.6759 1.08854C22.4311 1.14583 22.1863 1.20833 21.9467 1.27604C21.7644 1.32292 21.5821 1.38021 21.3998 1.44271C21.3894 1.44792 21.3738 1.45313 21.3582 1.45833C21.2332 1.5 21.103 1.54167 20.978 1.58854C20.9519 1.59896 20.9311 1.60937 20.9051 1.61458C20.7384 1.67187 20.5717 1.72396 20.4051 1.78646ZM21.4155 1.97396C21.4884 1.94792 21.5613 1.92708 21.6342 1.90625L22.8634 5.41146C21.0509 6 19.2228 6.45312 17.3946 6.78125C18.3061 4.33333 19.6707 2.67187 21.4155 1.97396ZM22.1186 1.75521C22.1655 1.74479 22.2071 1.73437 22.254 1.71875C23.5144 1.45313 24.9363 1.64063 26.5092 2.34375C27.0613 2.59375 27.6238 2.90625 28.1811 3.27083C26.6811 4 25.1186 4.64583 23.4988 5.19792C23.4259 5.22396 23.3582 5.24479 23.2853 5.27083L22.1186 1.75521ZM19.3321 2.82292C18.3946 3.78646 17.6342 5.13542 17.0769 6.83333C15.9155 7.03125 14.7488 7.17708 13.5873 7.27604C15.2436 5.38542 17.1759 3.88021 19.3321 2.82292ZM24.4155 1.25521C26.0821 1.01563 27.8269 1.01563 29.6342 1.27604C30.1863 1.35937 30.7384 1.46354 31.2905 1.58854C30.379 2.13542 29.4363 2.65104 28.4728 3.125C27.7748 2.63542 27.0717 2.22396 26.3738 1.90625C25.6967 1.59375 25.0405 1.375 24.4155 1.25521ZM16.3269 4.11458C15.129 5.02604 14.0196 6.09896 13.0301 7.31771C12.478 7.35937 11.9259 7.38542 11.379 7.40104C12.9155 6.15104 14.5717 5.05208 16.3269 4.11458ZM27.9207 0.661459C29.1759 0.546875 30.4571 0.510417 31.7488 0.552084C32.1186 0.567708 32.4832 0.588541 32.8478 0.614583C32.4936 0.848959 32.129 1.07813 31.7644 1.30729C31.0196 1.10417 30.2696 0.947916 29.5092 0.833333C28.978 0.75 28.4467 0.697916 27.9207 0.661459ZM10.8998 7.79687C11.4988 7.78646 12.103 7.76562 12.7071 7.72917C11.5769 9.19271 10.5978 10.849 9.80089 12.6719C8.6863 12.6302 7.57172 12.5469 6.46755 12.4271C7.78005 10.7344 9.26443 9.18229 10.8998 7.79687ZM33.478 0.666667C35.9988 0.895833 38.4259 1.42708 40.7176 2.22917C39.8998 2.90625 39.0613 3.55208 38.2019 4.17188C36.3113 2.97917 34.3269 2.05729 32.2748 1.44792C32.6811 1.19271 33.0821 0.932292 33.478 0.666667ZM13.228 7.69792H13.2332C14.4676 7.60417 15.7071 7.45833 16.9467 7.25521C16.4988 8.75521 16.1967 10.5104 16.0613 12.4792C14.0665 12.6771 12.0821 12.7448 10.1134 12.6823C10.9728 10.8333 12.0196 9.16146 13.228 7.69792ZM31.8321 1.72396C33.9571 2.27604 36.0144 3.16146 37.9676 4.33854C36.379 5.45833 34.7123 6.47917 32.9728 7.39583C31.6134 5.77604 30.2228 4.42188 28.8321 3.38542C29.8582 2.86979 30.8634 2.31771 31.8321 1.72396ZM17.2436 7.20313C19.1655 6.86979 21.0821 6.39583 22.9884 5.77604L24.7384 10.7656C23.3269 11.1875 21.8842 11.5521 20.4103 11.8385C19.0092 12.1146 17.6134 12.3177 16.2176 12.4635C16.3894 10.4635 16.7384 8.69792 17.2436 7.20313ZM28.5561 3.51563C29.9936 4.51042 31.4363 5.84896 32.8373 7.46875C30.3842 8.75521 27.7905 9.82813 25.0717 10.6667L23.4051 5.64063C23.4728 5.61458 23.5457 5.59375 23.6186 5.56771C25.3269 4.98437 26.978 4.29688 28.5561 3.51563ZM6.31651 12.6198C7.44672 12.7396 8.58213 12.8177 9.72276 12.8542C8.79568 15.0156 8.1238 17.401 7.73839 19.974C5.94672 19.8802 4.16547 19.6875 2.41026 19.4115C3.42068 16.9688 4.73838 14.6927 6.31651 12.6198ZM40.8998 2.29687C43.103 3.08333 45.1811 4.11979 47.103 5.36458C45.9623 6.45833 44.7696 7.50521 43.5301 8.5C41.9155 6.85937 40.1707 5.42708 38.3269 4.25C39.2071 3.625 40.0665 2.97396 40.8998 2.29687ZM10.0301 12.8646C12.0196 12.9115 14.0301 12.8385 16.0509 12.625C15.9155 14.7656 15.9728 17.151 16.2384 19.7448C13.4415 20.0469 10.6603 20.125 7.91026 19.9844C8.33213 17.4062 9.05609 15.0156 10.0301 12.8646ZM38.0978 4.41667C39.978 5.5625 41.754 6.97396 43.3998 8.60417C41.3686 10.2188 39.2123 11.6927 36.9363 13.0052C35.6967 10.9583 34.3946 9.09896 33.0561 7.49479C34.8113 6.56771 36.4936 5.54167 38.0978 4.41667ZM16.2123 12.6094C17.5613 12.4635 18.9155 12.2604 20.2748 11.9948C21.8061 11.6927 23.3061 11.3177 24.7748 10.875L27.0665 17.4115C25.8686 17.8021 24.6446 18.1562 23.4051 18.4688C21.0457 19.0573 18.6759 19.4792 16.3217 19.7344C16.0717 17.1302 16.0405 14.7396 16.2123 12.6094ZM32.9207 7.5625C34.2801 9.14583 35.6082 10.9948 36.8686 13.0469C33.8686 14.7656 30.6707 16.2135 27.2853 17.3385L25.1082 10.7708C27.8426 9.92708 30.4519 8.84896 32.9207 7.5625ZM2.30088 19.6823C4.08213 19.9479 5.88422 20.1302 7.70193 20.2135C7.39463 22.349 7.28526 24.6094 7.39984 26.9688C7.42068 27.3281 7.44151 27.6875 7.47276 28.0469C5.0613 27.9271 2.6863 27.6667 0.352967 27.2708C0.670676 24.6198 1.34255 22.0729 2.30088 19.6823ZM47.2696 5.47396C49.4363 6.90104 51.3998 8.59896 53.1186 10.5208C51.6238 12 50.0561 13.401 48.4155 14.7188C47.0144 12.474 45.4103 10.4219 43.6498 8.61458C44.9051 7.61979 46.1134 6.57292 47.2696 5.47396ZM7.8738 20.2188C10.6394 20.3385 13.4415 20.2448 16.2592 19.9219C16.3894 21.1562 16.5665 22.4375 16.7957 23.7552C17.0196 25.0729 17.2905 26.3906 17.5978 27.7031C16.3478 27.849 15.0873 27.9583 13.8165 28.026C11.7123 28.1406 9.63422 28.1458 7.57172 28.0469C7.55088 27.724 7.53005 27.3958 7.51443 27.0677C7.41026 24.6771 7.53526 22.3802 7.8738 20.2188ZM43.5196 8.72396C45.3009 10.5052 46.9259 12.5469 48.3373 14.7812C45.905 16.7396 43.3217 18.5104 40.5978 20.0781C39.4988 17.599 38.2905 15.2552 37.004 13.1198C39.2957 11.8073 41.4728 10.3385 43.5196 8.72396ZM16.3373 19.9115C18.6394 19.6458 20.9467 19.2292 23.254 18.651C24.5613 18.3281 25.8478 17.9531 27.1082 17.5365L29.7176 24.9896C25.8582 26.2865 21.8217 27.2031 17.6446 27.6979C17.3478 26.4271 17.0926 25.1458 16.8738 23.8698C16.6446 22.5052 16.4623 21.1823 16.3373 19.9115ZM36.9363 13.1615C38.2332 15.2865 39.4519 17.6198 40.5613 20.1042C37.1759 22.0521 33.5821 23.6823 29.8165 24.9531L27.3269 17.4635C30.7176 16.3281 33.9259 14.8802 36.9363 13.1615Z" fill="currentColor"/>
</svg>
